<?xml version="1.0" standalone="no"?>
<!DOCTYPE svg PUBLIC "-//W3C//DTD SVG 20010904//EN"
 "http://www.w3.org/TR/2001/REC-SVG-20010904/DTD/svg10.dtd">
<svg version="1.0" xmlns="http://www.w3.org/2000/svg"
 width="16.000000pt" height="16.000000pt" viewBox="0 0 16.000000 16.000000"
 preserveAspectRatio="xMidYMid meet">
<metadata>
Created by potrace 1.11, written by Peter Selinger 2001-2013
</metadata>
<g transform="translate(0.000000,16.000000) scale(0.002286,-0.002286)"
fill="#000000" stroke="none">
<path d="M3488 6993 c-1 -5 -19 -21 -38 -37 -19 -16 -84 -74 -144 -130 -59
-56 -125 -116 -145 -135 -145 -134 -469 -463 -631 -641 -62 -69 -116 -127
-120 -130 -3 -3 -57 -66 -120 -140 -63 -74 -117 -137 -120 -140 -4 -3 -55 -66
-114 -140 -59 -74 -113 -142 -119 -150 -112 -137 -363 -493 -478 -678 -230
-369 -398 -710 -513 -1042 -50 -144 -110 -363 -120 -444 -4 -27 -9 -52 -10
-55 -2 -3 -7 -27 -10 -53 -3 -27 -9 -68 -12 -93 -3 -25 -7 -65 -9 -88 -6 -65
-7 -317 -1 -367 3 -25 8 -72 11 -105 19 -187 88 -501 125 -567 6 -10 10 -22
10 -28 0 -18 68 -185 117 -286 132 -276 299 -510 523 -734 155 -156 171 -170
300 -266 243 -181 494 -312 780 -407 98 -33 288 -83 349 -92 96 -13 119 -17
141 -21 150 -25 576 -25 720 0 14 3 43 7 65 10 22 2 60 9 85 15 25 5 56 12 70
14 259 48 649 210 893 371 185 122 286 205 447 366 143 143 159 162 257 291
290 383 481 865 528 1339 4 36 9 76 11 90 6 37 5 305 -1 380 -5 59 -26 211
-41 300 -3 19 -14 67 -24 105 -10 39 -21 81 -23 95 -8 39 -82 265 -121 365
-105 276 -296 647 -475 927 -125 194 -369 541 -453 643 -9 11 -73 90 -141 175
-68 85 -135 167 -148 181 -13 14 -60 68 -104 120 -44 52 -84 99 -90 105 -162
177 -221 240 -325 348 -177 182 -308 312 -434 429 -60 56 -123 116 -140 132
-47 45 -196 175 -200 175 -2 0 -6 -3 -8 -7z"/>
</g>
</svg>
