<?xml version="1.0" encoding="UTF-8" standalone="no"?><!DOCTYPE svg PUBLIC "-//W3C//DTD SVG 1.1//EN" "http://www.w3.org/Graphics/SVG/1.1/DTD/svg11.dtd"><svg width="100%" height="100%" viewBox="0 0 1613 1792" version="1.1" xmlns="http://www.w3.org/2000/svg" xmlns:xlink="http://www.w3.org/1999/xlink" xml:space="preserve" style="fill-rule:evenodd;clip-rule:evenodd;stroke-linejoin:round;stroke-miterlimit:1.41421;"><rect id="Artboard1" x="0" y="0" width="1612.22" height="1792" style="fill:none;"/><path d="M1382.11,992l0,480c0,17.333 -6.333,32.333 -19,45c-12.667,12.667 -27.667,19 -45,19l-384,0l0,-384l-256,0l0,384l-384,0c-17.333,0 -32.333,-6.333 -45,-19c-12.667,-12.667 -19,-27.667 -19,-45l0,-480c0,-0.667 0.167,-1.667 0.5,-3c0.333,-1.333 0.5,-2.333 0.5,-3l575,-474l575,474c0.667,1.333 1,3.333 1,6Zm223,-69l-62,74c-5.333,6 -12.333,9.667 -21,11l-3,0c-8.667,0 -15.667,-2.333 -21,-7l-692,-577l-692,577c-8,5.333 -16,7.667 -24,7c-8.667,-1.333 -15.667,-5 -21,-11l-62,-74c-5.333,-6.667 -7.667,-14.5 -7,-23.5c0.667,-9 4.333,-16.167 11,-21.5l719,-599c21.333,-17.333 46.667,-26 76,-26c29.333,0 54.667,8.667 76,26l244,204l0,-195c0,-9.333 3,-17 9,-23c6,-6 13.667,-9 23,-9l192,0c9.333,0 17,3 23,9c6,6 9,13.667 9,23l0,408l219,182c6.667,5.333 10.333,12.5 11,21.5c0.667,9 -1.667,16.833 -7,23.5Z" style="fill:#0267ff;fill-rule:nonzero;"/></svg>