<?xml version="1.0" encoding="UTF-8" standalone="no"?><!DOCTYPE svg PUBLIC "-//W3C//DTD SVG 1.1//EN" "http://www.w3.org/Graphics/SVG/1.1/DTD/svg11.dtd"><svg width="100%" height="100%" viewBox="0 0 24 32" version="1.1" xmlns="http://www.w3.org/2000/svg" xmlns:xlink="http://www.w3.org/1999/xlink" xml:space="preserve" style="fill-rule:evenodd;clip-rule:evenodd;stroke-linejoin:round;stroke-miterlimit:1.41421;"><rect id="Artboard2" x="0" y="0" width="23.614" height="32" style="fill:none;"/><clipPath id="_clip1"><rect x="0" y="0" width="23.614" height="32"/></clipPath><g clip-path="url(#_clip1)"><rect id="Artboard1" x="0" y="0" width="8" height="32" style="fill:none;"/><g><rect x="-20" y="-8" width="48" height="48" style="fill:none;"/><path d="M11.807,8c2.21,0 4,-1.79 4,-4c0,-2.21 -1.79,-4 -4,-4c-2.21,0 -4,1.79 -4,4c0,2.21 1.79,4 4,4Zm0,4c-2.21,0 -4,1.79 -4,4c0,2.21 1.79,4 4,4c2.21,0 4,-1.79 4,-4c0,-2.21 -1.79,-4 -4,-4Zm0,12c-2.21,0 -4,1.79 -4,4c0,2.21 1.79,4 4,4c2.21,0 4,-1.79 4,-4c0,-2.21 -1.79,-4 -4,-4Z" style="fill:#0266ff;fill-rule:nonzero;"/></g></g></svg>