<?xml version="1.0" encoding="UTF-8" standalone="no"?><!DOCTYPE svg PUBLIC "-//W3C//DTD SVG 1.1//EN" "http://www.w3.org/Graphics/SVG/1.1/DTD/svg11.dtd"><svg width="100%" height="100%" viewBox="0 0 1408 2048" version="1.1" xmlns="http://www.w3.org/2000/svg" xmlns:xlink="http://www.w3.org/1999/xlink" xml:space="preserve" style="fill-rule:evenodd;clip-rule:evenodd;stroke-linejoin:round;stroke-miterlimit:1.41421;"><path d="M1408,1533c0,80 -24.333,143.167 -73,189.5c-48.667,46.333 -113.333,69.5 -194,69.5l-874,0c-80.667,0 -145.333,-23.167 -194,-69.5c-48.667,-46.333 -73,-109.5 -73,-189.5c0,-35.333 1.167,-69.833 3.5,-103.5c2.333,-33.667 7,-70 14,-109c7,-39 15.833,-75.167 26.5,-108.5c10.667,-33.333 25,-65.833 43,-97.5c18,-31.667 38.667,-58.667 62,-81c23.333,-22.333 51.833,-40.167 85.5,-53.5c33.667,-13.333 70.833,-20 111.5,-20c6,0 20,7.167 42,21.5c22,14.333 46.833,30.333 74.5,48c27.667,17.667 63.667,33.667 108,48c44.333,14.333 88.833,21.5 133.5,21.5c44.667,0 89.167,-7.167 133.5,-21.5c44.333,-14.333 80.333,-30.333 108,-48c27.667,-17.667 52.5,-33.667 74.5,-48c22,-14.333 36,-21.5 42,-21.5c40.667,0 77.833,6.667 111.5,20c33.667,13.333 62.167,31.167 85.5,53.5c23.333,22.333 44,49.333 62,81c18,31.667 32.333,64.167 43,97.5c10.667,33.333 19.5,69.5 26.5,108.5c7,39 11.667,75.333 14,109c2.333,33.667 3.5,68.167 3.5,103.5Zm-320,-893c0,106 -37.5,196.5 -112.5,271.5c-75,75 -165.5,112.5 -271.5,112.5c-106,0 -196.5,-37.5 -271.5,-112.5c-75,-75 -112.5,-165.5 -112.5,-271.5c0,-106 37.5,-196.5 112.5,-271.5c75,-75 165.5,-112.5 271.5,-112.5c106,0 196.5,37.5 271.5,112.5c75,75 112.5,165.5 112.5,271.5Z" style="fill:#0267ff;fill-rule:nonzero;"/></svg>