<?xml version="1.0" encoding="UTF-8" standalone="no"?><!DOCTYPE svg PUBLIC "-//W3C//DTD SVG 1.1//EN" "http://www.w3.org/Graphics/SVG/1.1/DTD/svg11.dtd"><svg width="100%" height="100%" viewBox="0 0 220 40" version="1.1" xmlns="http://www.w3.org/2000/svg" xmlns:xlink="http://www.w3.org/1999/xlink" xml:space="preserve" style="fill-rule:evenodd;clip-rule:evenodd;stroke-linejoin:round;stroke-miterlimit:1.41421;"><rect id="Artboard1" x="0" y="0" width="220" height="39.289" style="fill:none;"/><clipPath id="_clip1"><rect id="Artboard11" x="0" y="0" width="220" height="39.289"/></clipPath><g clip-path="url(#_clip1)"><g><path d="M0,2.437l12.487,0c1.692,0 3.334,0.177 4.924,0.533c1.591,0.355 3.004,0.939 4.239,1.751c1.235,0.812 2.225,1.878 2.969,3.198c0.745,1.32 1.117,2.927 1.117,4.822c0,2.606 -0.736,4.729 -2.208,6.371c-1.472,1.641 -3.477,2.749 -6.015,3.325l9.594,15.939l-7.716,0l-8.325,-15.229l-4.67,0l0,15.229l-6.396,0l0,-35.939Zm11.624,15.482c0.914,0 1.828,-0.068 2.741,-0.203c0.914,-0.136 1.735,-0.389 2.462,-0.762c0.728,-0.372 1.329,-0.905 1.802,-1.599c0.474,-0.693 0.711,-1.582 0.711,-2.665c0,-0.981 -0.22,-1.785 -0.66,-2.411c-0.44,-0.626 -0.998,-1.125 -1.675,-1.497c-0.677,-0.373 -1.447,-0.626 -2.31,-0.762c-0.863,-0.135 -1.7,-0.203 -2.512,-0.203l-5.787,0l0,10.102l5.228,0Z" style="fill:#fff;fill-rule:nonzero;"/><path d="M46.142,35.279l-0.152,0c-0.609,1.083 -1.591,1.971 -2.944,2.665c-1.354,0.694 -2.894,1.041 -4.62,1.041c-0.981,0 -2.005,-0.127 -3.071,-0.381c-1.066,-0.254 -2.047,-0.677 -2.944,-1.269c-0.897,-0.592 -1.641,-1.371 -2.233,-2.335c-0.593,-0.964 -0.889,-2.157 -0.889,-3.579c0,-1.827 0.516,-3.282 1.549,-4.365c1.032,-1.083 2.36,-1.912 3.984,-2.487c1.625,-0.576 3.427,-0.956 5.406,-1.143c1.98,-0.186 3.918,-0.279 5.813,-0.279l0,-0.609c0,-1.523 -0.55,-2.648 -1.65,-3.376c-1.1,-0.727 -2.411,-1.091 -3.934,-1.091c-1.286,0 -2.521,0.271 -3.706,0.812c-1.184,0.542 -2.166,1.202 -2.944,1.98l-3.147,-3.706c1.387,-1.286 2.986,-2.25 4.797,-2.893c1.81,-0.643 3.646,-0.965 5.507,-0.965c2.166,0 3.951,0.305 5.356,0.914c1.404,0.609 2.512,1.405 3.325,2.386c0.812,0.981 1.379,2.081 1.7,3.299c0.322,1.219 0.482,2.437 0.482,3.655l0,14.823l-5.685,0l0,-3.097Zm-0.101,-8.02l-1.371,0c-0.981,0 -2.013,0.042 -3.096,0.127c-1.083,0.084 -2.082,0.271 -2.995,0.558c-0.914,0.288 -1.675,0.694 -2.285,1.218c-0.609,0.525 -0.913,1.244 -0.913,2.158c0,0.575 0.127,1.057 0.38,1.446c0.254,0.39 0.584,0.703 0.99,0.94c0.406,0.236 0.863,0.406 1.371,0.507c0.507,0.102 1.015,0.152 1.523,0.152c2.098,0 3.688,-0.558 4.771,-1.675c1.083,-1.116 1.625,-2.639 1.625,-4.568l0,-0.863Z" style="fill:#fff;fill-rule:nonzero;"/><path d="M59.036,14.01l6.091,0l0,24.366l-6.091,0l0,-24.366Zm-0.863,-8.274c0,-0.981 0.363,-1.836 1.091,-2.563c0.728,-0.728 1.65,-1.092 2.766,-1.092c1.117,0 2.056,0.347 2.818,1.041c0.761,0.694 1.142,1.565 1.142,2.614c0,1.049 -0.381,1.921 -1.142,2.614c-0.762,0.694 -1.701,1.041 -2.818,1.041c-1.116,0 -2.038,-0.364 -2.766,-1.092c-0.728,-0.727 -1.091,-1.582 -1.091,-2.563Z" style="fill:#fff;fill-rule:nonzero;"/><path d="M72.538,14.01l5.787,0l0,3.909l0.101,0c0.542,-1.218 1.481,-2.293 2.818,-3.224c1.336,-0.93 2.918,-1.396 4.746,-1.396c1.59,0 2.952,0.28 4.086,0.838c1.134,0.558 2.064,1.294 2.792,2.208c0.728,0.914 1.261,1.963 1.599,3.147c0.338,1.185 0.508,2.403 0.508,3.655l0,15.229l-6.092,0l0,-13.503c0,-0.711 -0.051,-1.455 -0.152,-2.233c-0.102,-0.779 -0.322,-1.481 -0.66,-2.107c-0.338,-0.626 -0.804,-1.142 -1.396,-1.548c-0.592,-0.406 -1.379,-0.609 -2.36,-0.609c-0.982,0 -1.828,0.194 -2.538,0.583c-0.711,0.39 -1.295,0.889 -1.752,1.498c-0.456,0.609 -0.803,1.311 -1.04,2.106c-0.237,0.796 -0.356,1.599 -0.356,2.412l0,13.401l-6.091,0l0,-24.366Z" style="fill:#fff;fill-rule:nonzero;"/><path d="M141.015,10.863c-0.947,-1.286 -2.183,-2.225 -3.705,-2.817c-1.523,-0.593 -3.012,-0.889 -4.467,-0.889c-1.862,0 -3.554,0.339 -5.077,1.016c-1.522,0.676 -2.834,1.607 -3.934,2.791c-1.099,1.185 -1.945,2.572 -2.538,4.163c-0.592,1.59 -0.888,3.316 -0.888,5.178c0,1.962 0.288,3.756 0.863,5.38c0.575,1.625 1.396,3.021 2.462,4.188c1.066,1.168 2.343,2.073 3.832,2.716c1.489,0.643 3.165,0.964 5.026,0.964c1.929,0 3.638,-0.38 5.127,-1.142c1.489,-0.761 2.69,-1.768 3.604,-3.02l5.127,3.604c-1.591,1.997 -3.537,3.545 -5.838,4.645c-2.301,1.099 -4.991,1.649 -8.071,1.649c-2.809,0 -5.389,-0.465 -7.741,-1.396c-2.352,-0.93 -4.374,-2.233 -6.066,-3.908c-1.692,-1.675 -3.012,-3.672 -3.959,-5.99c-0.948,-2.318 -1.422,-4.882 -1.422,-7.69c0,-2.877 0.499,-5.474 1.498,-7.792c0.998,-2.318 2.369,-4.29 4.111,-5.914c1.743,-1.624 3.799,-2.876 6.168,-3.756c2.369,-0.88 4.941,-1.32 7.716,-1.32c1.15,0 2.352,0.11 3.604,0.33c1.252,0.22 2.453,0.558 3.604,1.015c1.15,0.457 2.233,1.024 3.248,1.701c1.016,0.676 1.879,1.489 2.589,2.436l-4.873,3.858Z" style="fill:#fff;fill-rule:nonzero;"/><path d="M163.655,13.299c1.59,0 2.952,0.28 4.086,0.838c1.134,0.558 2.064,1.294 2.792,2.208c0.728,0.914 1.261,1.963 1.599,3.147c0.338,1.185 0.508,2.403 0.508,3.655l0,15.229l-6.092,0l0,-13.401c0,-0.711 -0.051,-1.447 -0.152,-2.209c-0.102,-0.761 -0.313,-1.455 -0.635,-2.081c-0.321,-0.626 -0.778,-1.142 -1.37,-1.548c-0.592,-0.406 -1.379,-0.609 -2.361,-0.609c-0.981,0 -1.827,0.186 -2.538,0.558c-0.71,0.373 -1.302,0.872 -1.776,1.498c-0.474,0.626 -0.829,1.328 -1.066,2.106c-0.237,0.779 -0.356,1.574 -0.356,2.386l0,13.3l-6.091,0l0,-38.376l6.091,0l0,17.411l0.102,0c0.237,-0.507 0.584,-1.007 1.041,-1.497c0.456,-0.491 0.989,-0.931 1.599,-1.32c0.609,-0.389 1.302,-0.702 2.081,-0.939c0.778,-0.237 1.624,-0.356 2.538,-0.356Z" style="fill:#fff;fill-rule:nonzero;"/><path d="M194.873,35.279l-0.152,0c-0.609,1.083 -1.591,1.971 -2.944,2.665c-1.354,0.694 -2.894,1.041 -4.62,1.041c-0.981,0 -2.005,-0.127 -3.071,-0.381c-1.066,-0.254 -2.047,-0.677 -2.944,-1.269c-0.897,-0.592 -1.641,-1.371 -2.233,-2.335c-0.593,-0.964 -0.889,-2.157 -0.889,-3.579c0,-1.827 0.516,-3.282 1.549,-4.365c1.032,-1.083 2.36,-1.912 3.984,-2.487c1.625,-0.576 3.427,-0.956 5.406,-1.143c1.98,-0.186 3.917,-0.279 5.813,-0.279l0,-0.609c0,-1.523 -0.55,-2.648 -1.65,-3.376c-1.1,-0.727 -2.411,-1.091 -3.934,-1.091c-1.286,0 -2.521,0.271 -3.706,0.812c-1.184,0.542 -2.166,1.202 -2.944,1.98l-3.147,-3.706c1.387,-1.286 2.986,-2.25 4.797,-2.893c1.81,-0.643 3.646,-0.965 5.507,-0.965c2.166,0 3.951,0.305 5.356,0.914c1.404,0.609 2.512,1.405 3.325,2.386c0.812,0.981 1.379,2.081 1.7,3.299c0.322,1.219 0.482,2.437 0.482,3.655l0,14.823l-5.685,0l0,-3.097Zm-0.101,-8.02l-1.371,0c-0.981,0 -2.014,0.042 -3.096,0.127c-1.083,0.084 -2.082,0.271 -2.995,0.558c-0.914,0.288 -1.675,0.694 -2.285,1.218c-0.609,0.525 -0.913,1.244 -0.913,2.158c0,0.575 0.127,1.057 0.38,1.446c0.254,0.39 0.584,0.703 0.99,0.94c0.406,0.236 0.863,0.406 1.371,0.507c0.507,0.102 1.015,0.152 1.523,0.152c2.098,0 3.688,-0.558 4.771,-1.675c1.083,-1.116 1.625,-2.639 1.625,-4.568l0,-0.863Z" style="fill:#fff;fill-rule:nonzero;"/><path d="M203.655,18.883l0,-4.873l4.264,0l0,-7.056l5.99,0l0,7.056l6.091,0l0,4.873l-6.091,0l0,11.32c0,1.083 0.194,1.98 0.583,2.69c0.39,0.711 1.261,1.066 2.615,1.066c0.406,0 0.846,-0.042 1.319,-0.127c0.474,-0.084 0.897,-0.211 1.269,-0.38l0.203,4.771c-0.541,0.203 -1.184,0.364 -1.928,0.483c-0.745,0.118 -1.456,0.177 -2.132,0.177c-1.625,0 -2.945,-0.228 -3.96,-0.685c-1.015,-0.457 -1.819,-1.083 -2.411,-1.878c-0.592,-0.795 -0.998,-1.709 -1.218,-2.741c-0.22,-1.032 -0.33,-2.141 -0.33,-3.325l0,-11.371l-4.264,0Z" style="fill:#fff;fill-rule:nonzero;"/></g></g></svg>